<svg xmlns="http://www.w3.org/2000/svg" viewBox="0 0 200 30.27"><defs><style>.cls-1{fill:#fff;}</style></defs><title>Risorsa 1</title><g id="Livello_2" data-name="Livello 2"><g id="Livello_1-2" data-name="Livello 1"><g id="Group_1" data-name="Group 1"><path id="Path_1" data-name="Path 1" class="cls-1" d="M17.55.14V.68a3.41,3.41,0,0,0-2.16,2.38L9,19.59H8.54L1.88,2.43C1.45,1.3.82.72,0,.68V.14c.73,0,1.7.08,2.92.08,1.56,0,2.73,0,3.49-.08V.68A4.39,4.39,0,0,0,4.93.94a.74.74,0,0,0-.45.75A3.71,3.71,0,0,0,4.8,3L9.74,16.1,14.19,4.56a7.2,7.2,0,0,0,.54-2.24,1.37,1.37,0,0,0-.58-1.23A3.6,3.6,0,0,0,12.36.68V.14c1,0,2.08.08,3.14.08C16.32.22,17,.19,17.55.14Z"/><path id="Path_2" data-name="Path 2" class="cls-1" d="M25.46.68A5.27,5.27,0,0,0,24,.9a1,1,0,0,0-.62.63A5,5,0,0,0,23.25,3V16.56a4.74,4.74,0,0,0,.16,1.5,1,1,0,0,0,.62.63,5.27,5.27,0,0,0,1.43.22v.54c-.84-.05-2-.08-3.47-.08s-2.73,0-3.49.08v-.54a5.33,5.33,0,0,0,1.43-.22,1,1,0,0,0,.62-.63,5,5,0,0,0,.16-1.5V3a5,5,0,0,0-.16-1.5A1,1,0,0,0,19.93.9,5.76,5.76,0,0,0,18.5.68V.14c.76,0,1.93.08,3.49.08s2.61,0,3.47-.08Z"/><path id="Path_3" data-name="Path 3" class="cls-1" d="M34.71.68A5.4,5.4,0,0,0,33.27.9a1,1,0,0,0-.61.63A5,5,0,0,0,32.5,3V16.56a4.74,4.74,0,0,0,.16,1.5.94.94,0,0,0,.61.62,5,5,0,0,0,1.44.15h2a5.57,5.57,0,0,0,2.58-.48,2.79,2.79,0,0,0,1.29-1.54,11.67,11.67,0,0,0,.6-3.09h.63c0,.57-.08,1.31-.08,2.24s.06,2.2.19,3.49q-1.86-.07-6.25-.08-5.23,0-7.91.08v-.54a5.33,5.33,0,0,0,1.43-.22,1,1,0,0,0,.62-.63,5,5,0,0,0,.16-1.5V3a5,5,0,0,0-.16-1.5A1,1,0,0,0,29.18.9,5.33,5.33,0,0,0,27.75.68V.14c.76,0,1.93.08,3.49.08s2.61,0,3.47-.08Z"/><path id="Path_4" data-name="Path 4" class="cls-1" d="M50.75.68A5.39,5.39,0,0,0,49.32.9a1,1,0,0,0-.61.63A4.74,4.74,0,0,0,48.54,3V16.56a4.74,4.74,0,0,0,.17,1.5.94.94,0,0,0,.61.62,4.94,4.94,0,0,0,1.43.15h2a5.57,5.57,0,0,0,2.58-.48,2.85,2.85,0,0,0,1.3-1.54,12.52,12.52,0,0,0,.6-3.09h.63A22.21,22.21,0,0,0,57.76,16c0,1,.07,2.2.19,3.49-1.23-.05-3.32-.08-6.24-.08-3.5,0-6.13,0-7.92.08v-.54a5.4,5.4,0,0,0,1.44-.22,1,1,0,0,0,.61-.63,4.74,4.74,0,0,0,.16-1.5V3a4.74,4.74,0,0,0-.16-1.5A1,1,0,0,0,45.23.9,5.84,5.84,0,0,0,43.79.68V.14c.77,0,1.93.08,3.5.08s2.61,0,3.46-.08Z"/><path id="Path_5" data-name="Path 5" class="cls-1" d="M76.05,18.91v.55c-.73-.06-1.7-.09-2.92-.09-1.57,0-2.73,0-3.5.09v-.55a4.45,4.45,0,0,0,1.49-.26.74.74,0,0,0,.45-.75,3.56,3.56,0,0,0-.33-1.28l-1.66-4.48H63L61.86,15a7.28,7.28,0,0,0-.55,2.24,1.35,1.35,0,0,0,.59,1.23,3.47,3.47,0,0,0,1.79.41v.54c-1-.05-2.09-.08-3.14-.08-.82,0-1.5,0-2,.08v-.54a3.41,3.41,0,0,0,2.16-2.37L67.06,0h.44l6.66,17.16C74.6,18.29,75.23,18.87,76.05,18.91ZM69.36,11.6,66.3,3.44,63.19,11.6Z"/><path id="Path_6" data-name="Path 6" class="cls-1" d="M103.86.9a1,1,0,0,0-.61.63,4.7,4.7,0,0,0-.16,1.5V16.56a4.74,4.74,0,0,0,.16,1.5,1,1,0,0,0,.61.63,5.4,5.4,0,0,0,1.44.22v.54c-.84-.05-2-.08-3.47-.08s-2.73,0-3.49.08v-.54a5.39,5.39,0,0,0,1.43-.22,1,1,0,0,0,.62-.63,5,5,0,0,0,.16-1.5V1.94L94,19.59h-.43L86.66,1.88V16.29a5.26,5.26,0,0,0,.18,1.58,1.2,1.2,0,0,0,.69.75,4.73,4.73,0,0,0,1.62.29v.54c-.66-.05-1.59-.08-2.79-.08s-1.93,0-2.53.08v-.54a3.87,3.87,0,0,0,1.42-.29,1.21,1.21,0,0,0,.62-.76A5.52,5.52,0,0,0,86,16.29V3a5,5,0,0,0-.17-1.5A1,1,0,0,0,85.26.9,5.83,5.83,0,0,0,83.83.68V.14c.6,0,1.44.08,2.53.08s1.72,0,2.32-.08l6,15.8L100.55.22h1.29c1.47,0,2.62,0,3.46-.08V.68A5.4,5.4,0,0,0,103.86.9Z"/><path id="Path_7" data-name="Path 7" class="cls-1" d="M123.79,18.91v.55c-.72-.06-1.7-.09-2.91-.09-1.57,0-2.73,0-3.5.09v-.55a4.45,4.45,0,0,0,1.49-.26.74.74,0,0,0,.45-.75,3.56,3.56,0,0,0-.33-1.28l-1.66-4.48h-6.6L109.61,15a7.28,7.28,0,0,0-.55,2.24,1.35,1.35,0,0,0,.59,1.23,3.47,3.47,0,0,0,1.79.41v.54c-1-.05-2.09-.08-3.14-.08-.82,0-1.5,0-2,.08v-.54a3.41,3.41,0,0,0,2.16-2.37L114.82,0h.44l6.66,17.16C122.35,18.29,123,18.87,123.79,18.91Zm-6.68-7.31-3.06-8.16-3.11,8.16Z"/><path id="Path_8" data-name="Path 8" class="cls-1" d="M138.91,2.55q2.4,2.42,2.4,7a11.1,11.1,0,0,1-1.17,5.21,8.14,8.14,0,0,1-3.4,3.45,10.86,10.86,0,0,1-5.3,1.21l-1.59,0c-1,0-1.76-.06-2.23-.06-1.5,0-2.62,0-3.39.08v-.54a5.27,5.27,0,0,0,1.43-.22,1,1,0,0,0,.62-.63,4.74,4.74,0,0,0,.16-1.5V3a4.74,4.74,0,0,0-.16-1.5,1,1,0,0,0-.62-.63,5.27,5.27,0,0,0-1.43-.22V.14c.64,0,1.52.08,2.65.08l2.32,0,2.48,0Q136.51.14,138.91,2.55ZM129.73.82a1.08,1.08,0,0,0-.59.68A4.88,4.88,0,0,0,129,3V16.62a4.88,4.88,0,0,0,.16,1.47,1.08,1.08,0,0,0,.59.68A3.14,3.14,0,0,0,131,19a8.43,8.43,0,0,0,4.56-1.05,5.57,5.57,0,0,0,2.34-3.07,16.6,16.6,0,0,0,.66-5.15,14.81,14.81,0,0,0-.73-5.12,5.6,5.6,0,0,0-2.39-3,8.63,8.63,0,0,0-4.46-1,3.24,3.24,0,0,0-1.27.19Z"/><path id="Path_9" data-name="Path 9" class="cls-1" d="M159.59,18.91v.55c-.72-.06-1.7-.09-2.92-.09-1.56,0-2.73,0-3.49.09v-.55a4.45,4.45,0,0,0,1.49-.26.75.75,0,0,0,.45-.75,3.56,3.56,0,0,0-.33-1.28l-1.66-4.48h-6.6L145.41,15a7,7,0,0,0-.55,2.24,1.35,1.35,0,0,0,.59,1.23,3.47,3.47,0,0,0,1.79.41v.54c-1-.05-2.09-.08-3.14-.08-.82,0-1.5,0-2,.08v-.54a3.41,3.41,0,0,0,2.16-2.37L150.62,0h.43l6.66,17.16C158.15,18.29,158.77,18.87,159.59,18.91Zm-6.68-7.31-3.06-8.16-3.11,8.16Z"/><path id="Path_10" data-name="Path 10" class="cls-1" d="M180.07.9a1,1,0,0,0-.61.63,5,5,0,0,0-.17,1.5V16.56a5,5,0,0,0,.17,1.5,1,1,0,0,0,.61.63,5.39,5.39,0,0,0,1.43.22v.54c-.83-.05-2-.08-3.46-.08s-2.73,0-3.49.08v-.54a5.39,5.39,0,0,0,1.43-.22,1,1,0,0,0,.61-.63,4.74,4.74,0,0,0,.17-1.5V1.94l-6.58,17.65h-.43L162.87,1.88V16.29a5.26,5.26,0,0,0,.18,1.58,1.2,1.2,0,0,0,.69.75,4.73,4.73,0,0,0,1.62.29v.54c-.66-.05-1.59-.08-2.79-.08s-1.93,0-2.53.08v-.54a3.92,3.92,0,0,0,1.42-.29,1.21,1.21,0,0,0,.62-.76,5.91,5.91,0,0,0,.17-1.57V3a5,5,0,0,0-.17-1.5,1,1,0,0,0-.61-.63A5.83,5.83,0,0,0,160,.68V.14c.6,0,1.44.08,2.53.08s1.72,0,2.32-.08l6,15.8L176.76.22H178c1.48,0,2.63,0,3.47-.08V.68A5.4,5.4,0,0,0,180.07.9Z"/><path id="Path_11" data-name="Path 11" class="cls-1" d="M200,18.91v.55c-.73-.06-1.7-.09-2.92-.09-1.56,0-2.73,0-3.49.09v-.55a4.39,4.39,0,0,0,1.48-.26.76.76,0,0,0,.46-.75,4,4,0,0,0-.33-1.28l-1.66-4.48h-6.6L185.82,15a7.28,7.28,0,0,0-.55,2.24,1.38,1.38,0,0,0,.59,1.23,3.49,3.49,0,0,0,1.79.41v.54c-1-.05-2.08-.08-3.14-.08-.82,0-1.5,0-2,.08v-.54a3.41,3.41,0,0,0,2.16-2.37L191,0h.44l6.66,17.16C198.56,18.29,199.18,18.87,200,18.91Zm-6.68-7.31-3.06-8.16-3.11,8.16Z"/></g><g id="Group_3" data-name="Group 3"><path id="Path_17" data-name="Path 17" class="cls-1" d="M61.55,24.85l1.28,4.29,1.28-4.29H65l1.28,4.29,1.28-4.29h.91l-1.76,5.28h-.91L64.53,26l-1.26,4.12h-.92L60.6,24.85Z"/><path id="Path_18" data-name="Path 18" class="cls-1" d="M72.84,24.85v.8H70v1.43h2.58v.8H70v1.45h3v.8H69.07V24.85Z"/><path id="Path_19" data-name="Path 19" class="cls-1" d="M78.91,27.49a2.61,2.61,0,0,1-2.58,2.64H74V24.85h2.16a2.59,2.59,0,0,1,2.72,2.46A1.09,1.09,0,0,1,78.91,27.49Zm-.9,0a1.81,1.81,0,0,0-1.75-1.85H74.91v3.68H76.2A1.77,1.77,0,0,0,78,27.6v-.1Z"/><path id="Path_20" data-name="Path 20" class="cls-1" d="M84.74,27.49a2.6,2.6,0,0,1-2.57,2.64H79.85V24.85H82a2.59,2.59,0,0,1,2.72,2.46A1.08,1.08,0,0,1,84.74,27.49Zm-.89,0a1.81,1.81,0,0,0-1.75-1.85H80.74v3.68H82a1.78,1.78,0,0,0,1.81-1.72Z"/><path id="Path_21" data-name="Path 21" class="cls-1" d="M86.58,24.85v5.28h-.89V24.85Z"/><path id="Path_22" data-name="Path 22" class="cls-1" d="M88.84,24.85l2.83,3.79V24.85h.87v5.28h-.87l-2.81-3.78v3.78H88V24.85Z"/><path id="Path_23" data-name="Path 23" class="cls-1" d="M97.55,27.54h.77v1.94a3.58,3.58,0,0,1-2,.69,2.67,2.67,0,0,1-.21-5.34h.27a3.11,3.11,0,0,1,2,.74l-.5.65a2.32,2.32,0,0,0-1.52-.6,1.87,1.87,0,1,0-.08,3.74h.08A2.41,2.41,0,0,0,97.55,29Z"/><path id="Path_24" data-name="Path 24" class="cls-1" d="M105.65,30.27c-.3-.29-.58-.55-.82-.8a2.34,2.34,0,0,1-1.6.7,1.55,1.55,0,0,1-1.65-1.41v-.07c0-.75.54-1.15,1.13-1.46a2.11,2.11,0,0,1-.5-1.22,1.23,1.23,0,0,1,1.25-1.2h.12a1.18,1.18,0,0,1,1.33,1,.31.31,0,0,0,0,.1c0,.72-.64,1.1-1.29,1.44q.44.48,1.11,1.14a4.24,4.24,0,0,0,.48-1l.56.42a4.51,4.51,0,0,1-.55,1l.86.83ZM104.35,29c-.53-.53-.95-1-1.28-1.33-.44.24-.78.52-.78.95a.91.91,0,0,0,.93.89h0a1.56,1.56,0,0,0,1.09-.51Zm-1.06-2.07c.51-.26.94-.53.94-1a.57.57,0,0,0-.56-.57h-.08a.64.64,0,0,0-.69.59V26a1.53,1.53,0,0,0,.39.93Z"/><path id="Path_25" data-name="Path 25" class="cls-1" d="M112.86,24.85v.8H110v1.43h2.57v.8H110v1.45h3v.8H109.1V24.85Z"/><path id="Path_26" data-name="Path 26" class="cls-1" d="M114.33,24.85,116,29.14l1.65-4.29h.92l-2.13,5.28h-.92l-2.1-5.28Z"/><path id="Path_27" data-name="Path 27" class="cls-1" d="M123,24.85v.8h-2.88v1.43h2.58v.8h-2.58v1.45h3v.8h-3.86V24.85Z"/><path id="Path_28" data-name="Path 28" class="cls-1" d="M125.05,24.85l2.83,3.79V24.85h.88v5.28h-.88l-2.81-3.78v3.78h-.89V24.85Z"/><path id="Path_29" data-name="Path 29" class="cls-1" d="M133.75,24.85v.8h-1.67v4.48h-.89V25.65h-1.67v-.8Z"/><path id="Path_30" data-name="Path 30" class="cls-1" d="M136.18,25.65c-.52,0-.86.2-.86.55,0,1.16,2.85.54,2.84,2.44,0,.94-.83,1.52-2,1.52a3.22,3.22,0,0,1-2.16-.84l.39-.77a2.73,2.73,0,0,0,1.79.77c.61,0,1-.23,1-.64,0-1.17-2.85-.52-2.85-2.39,0-.91.78-1.47,1.92-1.47a3.44,3.44,0,0,1,1.85.54l-.37.78A3.25,3.25,0,0,0,136.18,25.65Z"/></g></g></g></svg>