<?xml version="1.0" encoding="utf-8"?>
<!-- Generator: Adobe Illustrator 23.0.0, SVG Export Plug-In . SVG Version: 6.00 Build 0)  -->
<svg version="1.1" id="Livello_1" xmlns="http://www.w3.org/2000/svg" xmlns:xlink="http://www.w3.org/1999/xlink" x="0px" y="0px"
	 viewBox="0 0 100 100" style="enable-background:new 0 0 100 100;" xml:space="preserve">
<style type="text/css">
	.st0{clip-path:url(#SVGID_2_);fill:#4574B8;}
	.st1{fill:#FFFFFF;}
	.st2{fill:#E2DFDA;}
</style>
<path class="st2" d="M50,0.7C22.8,0.7,0.7,22.8,0.7,50S22.8,99.3,50,99.3S99.3,77.2,99.3,50S77.2,0.7,50,0.7z M64.9,31.2h-4.4
	c-4.3,0-5.7,2.7-5.7,5.4v6.5h9.7L63,53.3h-8.1v24.4c-1.8,0.3-3.6,0.4-5.5,0.4s-3.7-0.1-5.5-0.4V53.3h-8.9V43.2h8.9v-7.7
	c0-8.7,5.2-13.6,13.2-13.6c3.8,0,7.8,0.7,7.8,0.7V31.2z"/>
</svg>
